<svg width="13" height="15" viewBox="0 0 13 15" fill="none" xmlns="http://www.w3.org/2000/svg">
<path d="M8.98223 1.28805C7.67836 0.985074 6.32238 0.985074 5.0185 1.28805C4.26543 0.826185 3.6905 0.613919 3.27237 0.524319C3.0939 0.484042 2.9113 0.465065 2.72837 0.467785C2.64513 0.470041 2.56228 0.48004 2.4809 0.497652L2.47023 0.499785L2.46597 0.501919H2.46277L2.6089 1.01499L2.46277 0.502985C2.38783 0.524162 2.31844 0.561492 2.25947 0.612353C2.2005 0.663213 2.15338 0.72637 2.12143 0.797385C1.80674 1.50214 1.74678 2.29436 1.95183 3.03845C1.42078 3.68203 1.13138 4.49099 1.1337 5.32539C1.1337 6.98192 1.62223 8.09552 2.4553 8.81125C3.03877 9.31259 3.74703 9.57925 4.45743 9.73179C4.34564 10.0601 4.3035 10.4081 4.3337 10.7537V11.3915C3.89957 11.4822 3.59877 11.4534 3.38437 11.383C3.11663 11.2945 2.91077 11.1163 2.71343 10.8603C2.61028 10.7223 2.51415 10.5792 2.42543 10.4315L2.36463 10.3323C2.28786 10.2047 2.20819 10.0788 2.1257 9.95472C1.92303 9.65499 1.62223 9.27952 1.13583 9.15152L0.619566 9.01605L0.348633 10.0486L0.864899 10.1841C0.950233 10.2054 1.06117 10.2854 1.24357 10.5531C1.31377 10.6588 1.38135 10.7662 1.44623 10.8753L1.51877 10.9926C1.61903 11.1547 1.73423 11.3339 1.86757 11.5089C2.13743 11.8609 2.50543 12.2161 3.05157 12.3963C3.4249 12.5201 3.84943 12.5499 4.3337 12.4753V14.4667C4.3337 14.6082 4.38989 14.7438 4.48991 14.8438C4.58993 14.9439 4.72558 15.0001 4.86703 15.0001H9.1337C9.27515 15.0001 9.4108 14.9439 9.51082 14.8438C9.61084 14.7438 9.66703 14.6082 9.66703 14.4667V10.6662C9.66703 10.3302 9.6521 10.0219 9.55717 9.73499C10.2644 9.58565 10.9673 9.31899 11.5476 8.81765C12.3796 8.09659 12.867 6.97232 12.867 5.30619V5.30512C12.8643 4.47756 12.5748 3.67652 12.0478 3.03845C12.2526 2.2947 12.1927 1.50289 11.8782 0.798452C11.8465 0.727352 11.7996 0.664058 11.7408 0.613014C11.6821 0.561971 11.6128 0.524415 11.538 0.502985L11.3918 1.01499C11.538 0.502985 11.5369 0.502985 11.5358 0.502985L11.5337 0.501919L11.5294 0.499785L11.5198 0.497652C11.4935 0.490802 11.4668 0.48546 11.4398 0.481652C11.384 0.473499 11.3277 0.468868 11.2713 0.467785C11.0884 0.465085 10.9058 0.484061 10.7273 0.524319C10.3102 0.613919 9.7353 0.826185 8.98223 1.28805Z" fill="currentColor"/>
</svg>
